<svg width="1668" height="588" viewBox="0 0 1668 588" fill="none" xmlns="http://www.w3.org/2000/svg">
<rect width="1668" height="588" fill="black"/>
<circle cx="833.507" cy="261.031" r="144.322" fill="white"/>
<path fill-rule="evenodd" clip-rule="evenodd" d="M945.626 162.834C960.222 179.475 971.321 199.637 977.437 222.465C998.737 301.955 951.564 383.661 872.073 404.96C824.336 417.752 775.8 405.848 740.027 377.081C726.717 380.649 713.407 384.217 700.097 387.786L721.74 359.626C706.97 342.909 695.743 322.606 689.578 299.596C668.278 220.106 715.451 138.4 794.941 117.101C842.683 104.308 891.223 116.215 926.996 144.987L967.906 134.026L945.626 162.834ZM776.694 185.261L900.652 152.046C912.644 159.432 923.436 168.791 932.492 179.815L840.864 298.288L961.453 265.977C959.534 316.028 928.133 361.556 880.126 380.259L891.883 336.382C850.045 347.592 808.207 358.804 766.37 370.019C754.506 362.713 743.817 353.476 734.82 342.607L826.151 223.773L705.562 256.084C706.32 236.296 711.687 217.215 720.867 200.22L720.893 200.213L720.914 200.131C735.217 173.698 758.746 152.319 788.504 141.185L776.694 185.261Z" fill="url(#paint0_linear)"/>
<path d="M677.99 488.885V456.073H680.334L680.678 460.198C684.032 457.448 687.667 456.073 691.584 456.073C696.75 456.073 700.094 457.573 701.615 460.573C705.386 457.573 709.209 456.073 713.084 456.073C720.417 456.073 724.084 459.708 724.084 466.979V488.885H720.803V466.979C720.803 461.667 718.219 459.01 713.053 459.01C708.928 459.01 705.521 460.427 702.834 463.26V488.885H699.553V466.448C699.553 461.489 696.886 459.01 691.553 459.01C687.678 459.01 684.25 460.427 681.271 463.26V488.885H677.99ZM735.834 472.354C735.834 481.708 739.844 486.385 747.865 486.385C755.886 486.385 759.896 481.708 759.896 472.354C759.896 463.167 755.886 458.573 747.865 458.573C739.844 458.573 735.834 463.167 735.834 472.354ZM732.553 472.479C732.553 461.333 737.657 455.76 747.865 455.76C758.073 455.76 763.178 461.333 763.178 472.479C763.178 483.604 758.073 489.167 747.865 489.167C737.698 489.167 732.594 483.604 732.553 472.479ZM771.615 488.885V456.073H773.959L774.365 460.26C778.553 457.469 782.657 456.073 786.678 456.073C794.657 456.073 798.646 459.521 798.646 466.417V488.885H795.365V466.323C795.365 461.448 792.417 459.01 786.521 459.01C782.584 459.01 778.709 460.396 774.896 463.167V488.885H771.615ZM821.896 456.073C830.875 456.073 835.365 461.042 835.365 470.979C835.365 471.687 835.344 472.427 835.303 473.198H810.396C810.396 481.781 814.938 486.073 824.021 486.073C827.75 486.073 831.063 485.552 833.959 484.51V487.323C831.063 488.364 827.75 488.885 824.021 488.885C812.75 488.885 807.115 483.292 807.115 472.104C807.115 461.417 812.042 456.073 821.896 456.073ZM810.396 470.26H832.209C832.084 462.635 828.646 458.823 821.896 458.823C814.605 458.823 810.771 462.635 810.396 470.26ZM839.896 456.073H843.678L855.865 485.698L867.865 456.073H871.49L857.24 489.854C854.823 495.812 851.198 499.531 846.365 501.01L845.396 498.385C849.188 497.01 852.084 494.01 854.084 489.385L839.896 456.073Z" fill="#12843C"/>
<path d="M876.678 456.073H901.053V458.885L880.209 486.073H900.428V488.885H876.053V486.073L897.146 458.885H876.678V456.073ZM922.709 456.073C931.688 456.073 936.178 461.042 936.178 470.979C936.178 471.687 936.157 472.427 936.115 473.198H911.209C911.209 481.781 915.75 486.073 924.834 486.073C928.563 486.073 931.875 485.552 934.771 484.51V487.323C931.875 488.364 928.563 488.885 924.834 488.885C913.563 488.885 907.928 483.292 907.928 472.104C907.928 461.417 912.855 456.073 922.709 456.073ZM911.209 470.26H933.021C932.896 462.635 929.459 458.823 922.709 458.823C915.417 458.823 911.584 462.635 911.209 470.26ZM944.615 488.885V456.073H946.959L947.365 461.51C950.657 457.885 954.323 456.073 958.365 456.073V458.698C954.448 458.698 950.959 460.604 947.896 464.417V488.885H944.615ZM962.615 479.604C962.615 473.083 966.948 469.823 975.615 469.823C978.678 469.823 981.948 470.031 985.428 470.448V466.417C985.428 461.396 982.271 458.885 975.959 458.885C972.584 458.885 969.125 459.406 965.584 460.448V457.635C969.125 456.594 972.584 456.073 975.959 456.073C984.459 456.073 988.709 459.469 988.709 466.26V488.885H986.709L985.959 485.635C981.855 487.802 977.875 488.885 974.021 488.885C966.417 488.885 962.615 485.792 962.615 479.604ZM975.615 472.635C969.136 472.635 965.896 474.927 965.896 479.51C965.896 483.885 968.605 486.073 974.021 486.073C978.021 486.073 981.823 485.01 985.428 482.885V473.26C981.948 472.844 978.678 472.635 975.615 472.635Z" fill="white"/>
<defs>
<linearGradient id="paint0_linear" x1="982.552" y1="111.986" x2="684.463" y2="410.075" gradientUnits="userSpaceOnUse">
<stop stop-color="#12843C"/>
<stop offset="1" stop-color="#03FE60"/>
</linearGradient>
</defs>
</svg>
