<svg width="300" height="300" viewBox="0 0 300 300" fill="none" xmlns="http://www.w3.org/2000/svg">
<path fill-rule="evenodd" clip-rule="evenodd" d="M262.136 51.834C276.732 68.4749 287.831 88.6372 293.947 111.465C315.247 190.955 268.074 272.661 188.583 293.96C140.846 306.752 92.3096 294.848 56.5372 266.081C43.2272 269.649 29.9173 273.217 16.6074 276.786L38.2502 248.626C23.4803 231.909 12.253 211.606 6.08751 188.596C-15.2118 109.106 31.9612 27.4 111.451 6.10065C159.193 -6.69155 207.733 5.2149 243.506 33.9874L284.416 23.0255L262.136 51.834ZM93.2041 74.2607L217.162 41.0464C229.154 48.432 239.946 57.7912 249.002 68.8154L157.374 187.288L277.963 154.977C276.044 205.028 244.643 250.556 196.636 269.259L208.393 225.382C166.555 236.592 124.717 247.804 82.88 259.019C71.0157 251.713 60.3267 242.476 51.3303 231.607L142.661 112.773L22.0717 145.084C22.8303 125.296 28.1972 106.215 37.3765 89.2197L37.4026 89.2127L37.4244 89.1311C51.7272 62.6985 75.2561 41.3195 105.014 30.1853L93.2041 74.2607Z" fill="url(#paint0_linear)"/>
<defs>
<linearGradient id="paint0_linear" x1="299.062" y1="0.986374" x2="0.973236" y2="299.075" gradientUnits="userSpaceOnUse">
<stop stop-color="#12843C"/>
<stop offset="1" stop-color="#03FE60"/>
</linearGradient>
</defs>
</svg>
